<?xml version="1.0" encoding="UTF-8"?>
<svg width="42px" height="54px" viewBox="0 0 42 54" version="1.1" xmlns="http://www.w3.org/2000/svg" xmlns:xlink="http://www.w3.org/1999/xlink">
    <!-- Generator: Sketch 54.1 (76490) - https://sketchapp.com -->
    <title>B</title>
    <desc>Created with Sketch.</desc>
    <g id="Page-1" stroke="none" stroke-width="1" fill="none" fill-rule="evenodd">
        <path d="M5.11827957,23.5591398 L22.7311828,23.5591398 C24.7885408,23.5591398 26.5698849,23.3207909 28.0752688,22.844086 C29.5806527,22.3673811 30.8351204,21.7150579 31.8387097,20.8870968 C32.8422989,20.0591356 33.5949796,19.0931955 34.0967742,17.9892473 C34.5985688,16.8852991 34.8494624,15.7060995 34.8494624,14.4516129 C34.8494624,7.72756495 30.8100762,4.3655914 22.7311828,4.3655914 L5.11827957,4.3655914 L5.11827957,23.5591398 Z M0,0 L22.7311828,0 C24.9892586,0 27.1594878,0.213259516 29.2419355,0.639784946 C31.3243832,1.06631038 33.1559061,1.79390167 34.7365591,2.82258065 C36.3172122,3.85125962 37.5842246,5.20608478 38.5376344,6.88709677 C39.4910442,8.56810876 39.9677419,10.6630699 39.9677419,13.172043 C39.9677419,14.577068 39.7419377,15.9444378 39.2903226,17.2741935 C38.8387074,18.6039493 38.1989289,19.8082383 37.3709677,20.8870968 C36.5430066,21.9659552 35.5645218,22.8817167 34.4354839,23.6344086 C33.306446,24.3871005 32.0394335,24.913977 30.6344086,25.2150538 L30.6344086,25.3655914 C34.0967915,25.8172066 36.8566205,27.2347551 38.9139785,29.6182796 C40.9713365,32.001804 42,34.9498032 42,38.4623656 C42,39.3154165 41.9247319,40.2813566 41.7741935,41.3602151 C41.6236552,42.4390735 41.3225829,43.5430051 40.8709677,44.672043 C40.4193526,45.8010809 39.7670294,46.9175572 38.9139785,48.0215054 C38.0609276,49.1254535 36.919362,50.0913937 35.4892473,50.9193548 C34.0591326,51.747316 32.3028778,52.4247285 30.2204301,52.9516129 C28.1379824,53.4784973 25.6415916,53.7419355 22.7311828,53.7419355 L0,53.7419355 L0,0 Z M5.11827957,49.3763441 L22.7311828,49.3763441 C24.6380024,49.3763441 26.4444359,49.2132633 28.1505376,48.8870968 C29.8566394,48.5609303 31.3620006,47.9713304 32.6666667,47.1182796 C33.9713327,46.2652287 34.9999962,45.1236631 35.7526882,43.6935484 C36.5053801,42.2634337 36.8817204,40.4695448 36.8817204,38.311828 C36.8817204,34.8494451 35.6648867,32.2526968 33.2311828,30.5215054 C30.7974789,28.7903139 27.2975139,27.9247312 22.7311828,27.9247312 L5.11827957,27.9247312 L5.11827957,49.3763441 Z" id="B" fill="#1A8657" fill-rule="nonzero"></path>
    </g>
</svg>