<?xml version="1.0" encoding="UTF-8"?>
<svg width="44px" height="43px" viewBox="0 0 44 43" version="1.1" xmlns="http://www.w3.org/2000/svg" xmlns:xlink="http://www.w3.org/1999/xlink">
    <!-- Generator: Sketch 54.1 (76490) - https://sketchapp.com -->
    <title>github-logo</title>
    <desc>Created with Sketch.</desc>
    <g id="Page-1" stroke="none" stroke-width="1" fill="none" fill-rule="evenodd">
        <g id="github-logo" fill="#048657" fill-rule="nonzero">
            <path d="M41.0063964,10.9828415 C39.0411298,7.61541026 36.3753713,4.94941026 33.0084191,2.98424009 C29.6409658,1.0189697 25.9647107,0.0365850816 21.9770478,0.0365850816 C17.9898861,0.0365850816 14.3124282,1.0192704 10.9456765,2.98424009 C7.57842369,4.94931002 4.91276538,7.61541026 2.94749886,10.9828415 C0.98253303,14.3501725 0,18.027324 0,22.0141958 C0,26.8033333 1.3971754,31.1098485 4.19222779,34.9348438 C6.9869795,38.7601399 10.597385,41.4070956 15.0231435,42.8760117 C15.5383144,42.971634 15.9196811,42.9043776 16.1676446,42.6759464 C16.4157084,42.4472145 16.53959,42.1607483 16.53959,41.8177506 C16.53959,41.7605175 16.5346788,41.24562 16.5251572,40.2724569 C16.5153349,39.2992937 16.5107244,38.4503193 16.5107244,37.7259347 L15.8525285,37.8397995 C15.4328747,37.9166783 14.9034715,37.9492541 14.2643189,37.9400326 C13.625467,37.9311119 12.9622597,37.8641562 12.2755991,37.7396667 C11.5886378,37.6162797 10.9496856,37.3301142 10.3582415,36.8817716 C9.76709795,36.4334289 9.34744419,35.8465641 9.09938041,35.1220793 L8.81323007,34.4635478 C8.62249658,34.0251282 8.32221412,33.5380956 7.91198178,33.0042541 C7.50174943,32.4699114 7.08690661,32.107669 6.66725285,31.9169254 L6.46689749,31.7734918 C6.33339408,31.6781702 6.20951253,31.5632028 6.09495216,31.4297925 C5.98049203,31.2963823 5.89479727,31.1628718 5.8375672,31.0291608 C5.7802369,30.8953497 5.82774487,30.7855944 5.98059226,30.6994942 C6.13343964,30.6133939 6.40966743,30.5715967 6.81047836,30.5715967 L7.38257859,30.6570956 C7.76414579,30.7335734 8.23611845,30.9620047 8.79909795,31.3437925 C9.36177677,31.7252797 9.82432802,32.2212331 10.1868519,32.8314522 C10.6258497,33.6138718 11.1547517,34.2100583 11.7750615,34.6203124 C12.3948702,35.0305664 13.0197904,35.2353427 13.649221,35.2353427 C14.2786515,35.2353427 14.822287,35.1876317 15.280328,35.092711 C15.7378679,34.997289 16.1671435,34.8538555 16.5679544,34.6632121 C16.7396446,33.3844382 17.2071071,32.4020536 17.9699408,31.7153566 C16.8826697,31.6010909 15.9051481,31.4289907 15.0368747,31.2001585 C14.1691025,30.9710256 13.2723645,30.5991608 12.347262,30.0835618 C11.4216583,29.5686643 10.6538132,28.9292774 10.0435262,28.1665035 C9.43313895,27.4033287 8.93220046,26.4013986 8.5414123,25.1616154 C8.15042369,23.921331 7.95487927,22.4906037 7.95487927,20.8690326 C7.95487927,18.5601632 8.70859226,16.5953939 10.2157175,14.9736224 C9.50971298,13.2377855 9.57636446,11.2918601 10.4158724,9.13604662 C10.9691298,8.96414685 11.7895945,9.09314685 12.8768656,9.52224476 C13.9643371,9.95154312 14.7605467,10.3192984 15.2662961,10.6242075 C15.7720456,10.9290163 16.1772665,11.187317 16.4825604,11.3968042 C18.2570934,10.900951 20.0883554,10.6529744 21.9768474,10.6529744 C23.8653394,10.6529744 25.6970023,10.900951 27.4716355,11.3968042 L28.5590068,10.7103077 C29.3025968,10.2522424 30.1806925,9.8324662 31.1911891,9.45087879 C32.202287,9.06949184 32.9754442,8.96444755 33.5098588,9.13634732 C34.3680091,11.2922611 34.4444829,13.2380862 33.7382779,14.9739231 C35.245303,16.5956946 35.9993166,18.560965 35.9993166,20.8693333 C35.9993166,22.4909044 35.8030706,23.9261422 35.4126834,25.1759487 C35.021795,26.4259557 34.5165467,27.4268834 33.896738,28.1808368 C33.2762278,28.93469 32.5034715,29.5690653 31.578369,30.0838625 C30.6530661,30.5990606 29.7560273,30.9709254 28.8882551,31.2000583 C28.020082,31.4291911 27.0425604,31.6013916 25.9552893,31.7158578 C26.9469431,32.5740536 27.4428702,33.928704 27.4428702,35.7792075 L27.4428702,41.8169487 C27.4428702,42.1599464 27.5621412,42.4463124 27.8008838,42.6751445 C28.0393257,42.9035758 28.4158815,42.9708322 28.9310524,42.8751096 C33.3574123,41.4063939 36.9678178,38.759338 39.7624692,34.934042 C42.55682,31.1090466 43.9544966,26.8025315 43.9544966,22.0133939 C43.9534943,18.0270233 42.9704601,14.3501725 41.0063964,10.9828415 Z" id="Path"></path>
        </g>
    </g>
</svg>