<?xml version="1.0" encoding="UTF-8"?>
<svg width="16px" height="38px" viewBox="0 0 16 38" version="1.1" xmlns="http://www.w3.org/2000/svg" xmlns:xlink="http://www.w3.org/1999/xlink">
    <!-- Generator: Sketch 54.1 (76490) - https://sketchapp.com -->
    <title>i</title>
    <desc>Created with Sketch.</desc>
    <g id="Page-1" stroke="none" stroke-width="1" fill="none" fill-rule="evenodd">
        <path d="M7.21932507,37.042 L0.0705,37.042 L6.10835901,11.6346893 L13.3054869,11.6346893 L7.21932507,37.042 Z M10.6971319,8.54330548 C9.69886751,8.54330548 8.79722291,8.24544075 7.99217102,7.64970235 C7.18711913,7.05396395 6.78459922,6.14426896 6.78459922,4.92059008 C6.78459922,4.24434649 6.92145599,3.60836503 7.19517363,3.01262663 C7.46889127,2.41688823 7.83115919,1.90166275 8.28198825,1.46693473 C8.73281731,1.0322067 9.25609319,0.686039582 9.85183159,0.428422977 C10.44757,0.170806371 11.0835514,0.042 11.759795,0.042 C12.7580594,0.042 13.659704,0.339864732 14.4647559,0.935603133 C15.2698078,1.53134153 15.6723277,2.44103653 15.6723277,3.6647154 C15.6723277,4.34095899 15.5354709,4.97694045 15.2617533,5.57267885 C14.9880356,6.16841725 14.6257677,6.68364273 14.1749386,7.11837076 C13.7241096,7.55309878 13.2008337,7.8992659 12.6050953,8.15688251 C12.0093569,8.41449911 11.3733754,8.54330548 10.6971319,8.54330548 Z" id="i" fill="#198652" fill-rule="nonzero"></path>
    </g>
</svg>