<?xml version="1.0" encoding="UTF-8"?>
<svg width="44px" height="28px" viewBox="0 0 44 28" version="1.1" xmlns="http://www.w3.org/2000/svg" xmlns:xlink="http://www.w3.org/1999/xlink">
    <!-- Generator: Sketch 54.1 (76490) - https://sketchapp.com -->
    <title>Path</title>
    <desc>Created with Sketch.</desc>
    <g id="Page-1" stroke="none" stroke-width="1" fill="none" fill-rule="evenodd">
        <path d="M44,0.470555556 C44,0.63 43.9496922,0.773888889 43.8529464,0.906111111 C43.7523307,1.03444444 43.6478452,1.10055556 43.5278804,1.10055556 C42.564292,1.19388889 41.7709763,1.505 41.1595427,2.03777778 C40.5442392,2.56666667 39.9134565,3.58166667 39.2594547,5.075 L29.2752858,27.685 C29.2094987,27.895 29.0276165,28 28.7257696,28 C28.4897098,28 28.3078276,27.895 28.1762533,27.685 L22.5766051,15.9172222 L16.1372032,27.685 C16.0056288,27.895 15.8237467,28 15.5876869,28 C15.3013193,28 15.1116974,27.895 15.0188215,27.685 L5.20879507,5.075 C4.59736148,3.67111111 3.95109938,2.69111111 3.2700088,2.135 C2.59278804,1.57888889 1.64467898,1.23277778 0.433421284,1.10055556 C0.328935796,1.10055556 0.228320141,1.04611111 0.139313984,0.933333333 C0.0464379947,0.824444444 0,0.696111111 0,0.552222222 C0,0.182777778 0.104485488,0 0.313456464,0 C1.1880387,0 2.10131926,0.0388888889 3.05716799,0.116666667 C3.94335972,0.198333333 4.77924362,0.237222222 5.56094987,0.237222222 C6.35813544,0.237222222 7.29850484,0.198333333 8.38205805,0.116666667 C9.51591909,0.0388888889 10.5220756,0 11.3966579,0 C11.6056288,0 11.7101143,0.182777778 11.7101143,0.552222222 C11.7101143,0.917777778 11.6443272,1.10055556 11.5166227,1.10055556 C10.6420405,1.16666667 9.9532102,1.39222222 9.45013193,1.76944444 C8.94705365,2.15055556 8.69551451,2.64833333 8.69551451,3.26666667 C8.69551451,3.58166667 8.8,3.97444444 9.00897098,4.445 L17.1162709,22.8433333 L21.7175022,14.1088889 L17.4297274,5.075 C16.6596306,3.465 16.024978,2.42277778 15.5296394,1.95611111 C15.0343008,1.49333333 14.2835532,1.20555556 13.2773967,1.10055556 C13.1845207,1.10055556 13.0993843,1.04611111 13.014248,0.933333333 C12.9291117,0.824444444 12.8865435,0.696111111 12.8865435,0.552222222 C12.8865435,0.182777778 12.9755497,0 13.1613017,0 C14.0358839,0 14.8369393,0.0388888889 15.5683377,0.116666667 C16.2726473,0.198333333 17.0233949,0.237222222 17.8205805,0.237222222 C18.6022867,0.237222222 19.430431,0.198333333 20.3050132,0.116666667 C21.2066843,0.0388888889 22.092876,0 22.9674582,0 C23.1764292,0 23.2809147,0.182777778 23.2809147,0.552222222 C23.2809147,0.917777778 23.2189974,1.10055556 23.087423,1.10055556 C21.3382586,1.22111111 20.4636763,1.71888889 20.4636763,2.59777778 C20.4636763,2.99055556 20.6649077,3.60111111 21.0712401,4.42555556 L23.9078276,10.2122222 L26.7289358,4.91944444 C27.1197889,4.17277778 27.3171504,3.54277778 27.3171504,3.02944444 C27.3171504,1.82388889 26.4425682,1.18222222 24.6934037,1.10055556 C24.5347405,1.10055556 24.4573439,0.917777778 24.4573439,0.552222222 C24.4573439,0.42 24.4960422,0.295555556 24.5734389,0.178888889 C24.6547054,0.0583333333 24.732102,0 24.8094987,0 C25.4364116,0 26.2065084,0.0388888889 27.1197889,0.116666667 C27.9943712,0.198333333 28.7141601,0.237222222 29.2752858,0.237222222 C29.6777485,0.237222222 30.2737027,0.202222222 31.055409,0.136111111 C32.0460862,0.0466666667 32.8781003,0 33.5437115,0 C33.6985048,0 33.7759015,0.155555556 33.7759015,0.470555556 C33.7759015,0.890555556 33.6327177,1.10055556 33.34635,1.10055556 C32.328584,1.20555556 31.5081794,1.48944444 30.8890062,1.94833333 C30.2698329,2.40722222 29.4958663,3.44944444 28.5709763,5.075 L24.8094987,12.0633333 L29.9021988,22.4894444 L37.4212841,4.91944444 C37.6805629,4.27777778 37.8121372,3.68666667 37.8121372,3.15 C37.8121372,1.86277778 36.937555,1.18222222 35.1883905,1.10055556 C35.0297274,1.10055556 34.9523307,0.917777778 34.9523307,0.552222222 C34.9523307,0.182777778 35.0684257,0 35.3044855,0 C35.9430079,0 36.7014952,0.0388888889 37.5760774,0.116666667 C38.3848725,0.198333333 39.0659631,0.237222222 39.6116095,0.237222222 C40.1882146,0.237222222 40.8538259,0.198333333 41.6084433,0.116666667 C42.3940193,0.0388888889 43.0983289,0 43.7252419,0 C43.907124,0 44,0.155555556 44,0.470555556 Z" id="Path" fill="#048657"></path>
    </g>
</svg>