<?xml version="1.0" encoding="UTF-8"?>
<svg width="27px" height="19px" viewBox="0 0 27 19" version="1.1" xmlns="http://www.w3.org/2000/svg" xmlns:xlink="http://www.w3.org/1999/xlink">
    <!-- Generator: Sketch 54.1 (76490) - https://sketchapp.com -->
    <title>surface1</title>
    <desc>Created with Sketch.</desc>
    <g id="Page-1" stroke="none" stroke-width="1" fill="none" fill-rule="evenodd">
        <g id="Artboard-Copy-2" transform="translate(-323.000000, -118.000000)" fill="#A5A6A7" fill-rule="nonzero">
            <path d="M346.363636,120.375 C346.363636,120.375 343.653727,118.243437 340.454545,118 L340.166182,118.580094 C343.058091,119.292 344.385273,120.309687 345.772727,121.5625 C343.381318,120.335813 341.021818,119.1875 336.909091,119.1875 C332.796364,119.1875 330.436864,120.335813 328.045455,121.5625 C329.432909,120.309687 331.011818,119.178 333.652,118.580094 L333.363636,118 C330.007273,118.317656 327.454545,120.375 327.454545,120.375 C327.454545,120.375 324.4285,124.784188 323.909091,133.4375 C326.958182,136.972094 331.590909,137 331.590909,137 L332.56,135.70325 C330.914909,135.1285 329.059455,134.103094 327.454545,132.25 C329.367909,133.704688 332.255682,135.21875 336.909091,135.21875 C341.5625,135.21875 344.450273,133.704688 346.363636,132.25 C344.759318,134.103094 342.903864,135.1285 341.258182,135.70325 L342.227273,137 C342.227273,137 346.86,136.972094 349.909091,133.4375 C349.389682,124.784188 346.363636,120.375 346.363636,120.375 Z M333.068182,131.0625 C331.925364,131.0625 331,129.999687 331,128.6875 C331,127.375313 331.925364,126.3125 333.068182,126.3125 C334.211,126.3125 335.136364,127.375313 335.136364,128.6875 C335.136364,129.999687 334.211,131.0625 333.068182,131.0625 Z M340.75,131.0625 C339.607182,131.0625 338.681818,129.999687 338.681818,128.6875 C338.681818,127.375313 339.607182,126.3125 340.75,126.3125 C341.892818,126.3125 342.818182,127.375313 342.818182,128.6875 C342.818182,129.999687 341.892818,131.0625 340.75,131.0625 Z" id="surface1"></path>
        </g>
    </g>
</svg>