<?xml version="1.0" encoding="UTF-8"?>
<svg width="27px" height="19px" viewBox="0 0 27 19" version="1.1" xmlns="http://www.w3.org/2000/svg" xmlns:xlink="http://www.w3.org/1999/xlink">
    <!-- Generator: Sketch 54.1 (76490) - https://sketchapp.com -->
    <title>surface1</title>
    <desc>Created with Sketch.</desc>
    <g id="Page-1" stroke="none" stroke-width="1" fill="none" fill-rule="evenodd">
        <g id="Artboard-Copy-2" transform="translate(-322.000000, -133.000000)" fill="#A5A6A7" fill-rule="nonzero">
            <g id="Group-3" transform="translate(24.000000, 121.000000)">
                <g id="discord" transform="translate(306.000000, 12.000000)">
                    <path d="M15.3636364,2.375 C15.3636364,2.375 12.6537273,0.2434375 9.45454545,0 L9.16618182,0.58009375 C12.0580909,1.292 13.3852727,2.3096875 14.7727273,3.5625 C12.3813182,2.3358125 10.0218182,1.1875 5.90909091,1.1875 C1.79636364,1.1875 -0.563136364,2.3358125 -2.95454545,3.5625 C-1.56709091,2.3096875 0.0118181818,1.178 2.652,0.58009375 L2.36363636,0 C-0.992727273,0.31765625 -3.54545455,2.375 -3.54545455,2.375 C-3.54545455,2.375 -6.5715,6.7841875 -7.09090909,15.4375 C-4.04181818,18.9720937 0.590909091,19 0.590909091,19 L1.56,17.70325 C-0.0850909091,17.1285 -1.94054545,16.1030937 -3.54545455,14.25 C-1.63209091,15.7046875 1.25568182,17.21875 5.90909091,17.21875 C10.5625,17.21875 13.4502727,15.7046875 15.3636364,14.25 C13.7593182,16.1030937 11.9038636,17.1285 10.2581818,17.70325 L11.2272727,19 C11.2272727,19 15.86,18.9720937 18.9090909,15.4375 C18.3896818,6.7841875 15.3636364,2.375 15.3636364,2.375 Z M2.06818182,13.0625 C0.925363636,13.0625 -8.8817842e-16,11.9996875 -8.8817842e-16,10.6875 C-8.8817842e-16,9.3753125 0.925363636,8.3125 2.06818182,8.3125 C3.211,8.3125 4.13636364,9.3753125 4.13636364,10.6875 C4.13636364,11.9996875 3.211,13.0625 2.06818182,13.0625 Z M9.75,13.0625 C8.60718182,13.0625 7.68181818,11.9996875 7.68181818,10.6875 C7.68181818,9.3753125 8.60718182,8.3125 9.75,8.3125 C10.8928182,8.3125 11.8181818,9.3753125 11.8181818,10.6875 C11.8181818,11.9996875 10.8928182,13.0625 9.75,13.0625 Z" id="surface1"></path>
                </g>
            </g>
        </g>
    </g>
</svg>