<?xml version="1.0" encoding="UTF-8"?>
<svg width="27px" height="19px" viewBox="0 0 27 19" version="1.1" xmlns="http://www.w3.org/2000/svg" xmlns:xlink="http://www.w3.org/1999/xlink">
    <!-- Generator: Sketch 54.1 (76490) - https://sketchapp.com -->
    <title>surface1</title>
    <desc>Created with Sketch.</desc>
    <g id="Page-1" stroke="none" stroke-width="1" fill="none" fill-rule="evenodd">
        <g id="Artboard-Copy-2" transform="translate(-322.000000, -133.000000)" fill="#FFFFFF" fill-rule="nonzero">
            <g id="Group-3" transform="translate(24.000000, 121.000000)">
                <g id="discord" transform="translate(298.000000, 12.000000)">
                    <path d="M23.3636364,2.375 C23.3636364,2.375 20.6537273,0.2434375 17.4545455,0 L17.1661818,0.58009375 C20.0580909,1.292 21.3852727,2.3096875 22.7727273,3.5625 C20.3813182,2.3358125 18.0218182,1.1875 13.9090909,1.1875 C9.79636364,1.1875 7.43686364,2.3358125 5.04545455,3.5625 C6.43290909,2.3096875 8.01181818,1.178 10.652,0.58009375 L10.3636364,0 C7.00727273,0.31765625 4.45454545,2.375 4.45454545,2.375 C4.45454545,2.375 1.4285,6.7841875 0.909090909,15.4375 C3.95818182,18.9720937 8.59090909,19 8.59090909,19 L9.56,17.70325 C7.91490909,17.1285 6.05945455,16.1030937 4.45454545,14.25 C6.36790909,15.7046875 9.25568182,17.21875 13.9090909,17.21875 C18.5625,17.21875 21.4502727,15.7046875 23.3636364,14.25 C21.7593182,16.1030937 19.9038636,17.1285 18.2581818,17.70325 L19.2272727,19 C19.2272727,19 23.86,18.9720937 26.9090909,15.4375 C26.3896818,6.7841875 23.3636364,2.375 23.3636364,2.375 Z M10.0681818,13.0625 C8.92536364,13.0625 8,11.9996875 8,10.6875 C8,9.3753125 8.92536364,8.3125 10.0681818,8.3125 C11.211,8.3125 12.1363636,9.3753125 12.1363636,10.6875 C12.1363636,11.9996875 11.211,13.0625 10.0681818,13.0625 Z M17.75,13.0625 C16.6071818,13.0625 15.6818182,11.9996875 15.6818182,10.6875 C15.6818182,9.3753125 16.6071818,8.3125 17.75,8.3125 C18.8928182,8.3125 19.8181818,9.3753125 19.8181818,10.6875 C19.8181818,11.9996875 18.8928182,13.0625 17.75,13.0625 Z" id="surface1"></path>
                </g>
            </g>
        </g>
    </g>
</svg>