<?xml version="1.0" encoding="UTF-8"?>
<svg width="129px" height="93px" viewBox="0 0 129 93" version="1.1" xmlns="http://www.w3.org/2000/svg" xmlns:xlink="http://www.w3.org/1999/xlink">
    <!-- Generator: Sketch 54.1 (76490) - https://sketchapp.com -->
    <title>ID</title>
    <desc>Created with Sketch.</desc>
    <g id="Page-1" stroke="none" stroke-width="1" fill="none" fill-rule="evenodd">
        <path d="M0.224,0.6 L20.552,0.6 L20.552,93 L0.224,93 L0.224,0.6 Z M79.688,74.652 C83.8240207,74.652 87.6079828,73.9920066 91.04,72.672 C94.4720172,71.3519934 97.3979879,69.4600123 99.818,66.996 C102.238012,64.5319877 104.129993,61.6280167 105.494,58.284 C106.858007,54.9399833 107.54,51.2000207 107.54,47.064 L107.54,46.8 C107.54,42.7519798 106.858007,39.0120172 105.494,35.58 C104.129993,32.1479828 102.238012,29.2000123 99.818,26.736 C97.3979879,24.2719877 94.4720172,22.3580068 91.04,20.994 C87.6079828,19.6299932 83.8240207,18.948 79.688,18.948 L63.98,18.948 L63.98,74.652 L79.688,74.652 Z M43.652,0.6 L79.688,0.6 C86.9040361,0.6 93.5259699,1.76598834 99.554,4.098 C105.58203,6.43001166 110.773978,9.66397932 115.13,13.8 C119.486022,17.9360207 122.851988,22.7979721 125.228,28.386 C127.604012,33.9740279 128.792,40.0239674 128.792,46.536 L128.792,46.8 C128.792,53.3120326 127.604012,59.3839718 125.228,65.016 C122.851988,70.6480282 119.486022,75.5319793 115.13,79.668 C110.773978,83.8040207 105.58203,87.0599881 99.554,89.436 C93.5259699,91.8120119 86.9040361,93 79.688,93 L43.652,93 L43.652,0.6 Z" id="ID" fill="#198657" fill-rule="nonzero"></path>
    </g>
</svg>