<?xml version="1.0" encoding="UTF-8"?>
<svg width="22px" height="20px" viewBox="0 0 22 20" version="1.1" xmlns="http://www.w3.org/2000/svg" xmlns:xlink="http://www.w3.org/1999/xlink">
    <!-- Generator: Sketch 54.1 (76490) - https://sketchapp.com -->
    <title>Shape</title>
    <desc>Created with Sketch.</desc>
    <g id="Page-2" stroke="none" stroke-width="1" fill="none" fill-rule="evenodd">
        <g id="Website" transform="translate(-1197.000000, -42.000000)" fill="#FFFFFF">
            <g id="ab4c0da3ffff8a5c7705274f74aaa890" transform="translate(1197.000000, 42.000000)">
                <path d="M11.87,13.07 L9.33,10.56 L9.36,10.53 C11.0541502,8.64710168 12.3198948,6.41925464 13.07,4 L16,4 L16,2 L9,2 L9,0 L7,0 L7,2 L0,2 L0,4 L11.17,4 C10.5,5.92 9.44,7.75 8,9.35 C7.07,8.32 6.3,7.19 5.69,6 L3.69,6 C4.42,7.63 5.42,9.17 6.67,10.56 L1.58,15.58 L3,17 L8,12 L11.11,15.11 L11.87,13.07 Z M17.5,8 L15.5,8 L11,20 L13,20 L14.12,17 L18.87,17 L20,20 L22,20 L17.5,8 Z M14.88,15 L16.5,10.67 L18.12,15 L14.88,15 L14.88,15 Z" id="Shape"></path>
            </g>
        </g>
    </g>
</svg>