<?xml version="1.0" encoding="UTF-8"?>
<svg width="44px" height="35px" viewBox="0 0 44 35" version="1.1" xmlns="http://www.w3.org/2000/svg" xmlns:xlink="http://www.w3.org/1999/xlink">
    <!-- Generator: Sketch 54.1 (76490) - https://sketchapp.com -->
    <title>medium</title>
    <desc>Created with Sketch.</desc>
    <g id="Page-1" stroke="none" stroke-width="1" fill="none" fill-rule="evenodd">
        <g id="medium" fill="#048657" fill-rule="nonzero">
            <g id="g10" transform="translate(22.000000, 17.545574) scale(-1, 1) rotate(-180.000000) translate(-22.000000, -17.545574) translate(0.000000, 0.182293)">
                <g id="g12">
                    <path d="M42.2597989,29.5312493 C41.6137323,29.5312493 40.699999,28.6045514 40.699999,28.0112649 L40.699999,6.50781234 C40.699999,5.91379673 41.6137323,5.10416654 42.2597989,5.10416654 L43.9999989,5.10416654 L44,0 L28.2333326,0 L28.2333326,5.10416654 L31.5333325,5.10416654 L31.5333325,27.7083326 L31.3716325,27.7083326 L23.6654727,0 L17.6992562,0 L10.0924997,27.7083326 L9.89999975,27.7083326 L9.89999975,5.10416654 L13.1999997,5.10416654 L13.1999997,0 L0,0 L0,5.10416654 L1.69024896,5.10416654 C2.38633994,5.10416654 3.29999992,5.91379673 3.29999992,6.50781234 L3.29999992,28.0112649 C3.29999992,28.6045514 2.38633994,29.5312493 1.69024896,29.5312493 L0,29.5312493 L0,34.6354158 L16.5060129,34.6354158 L21.9252361,14.583333 L22.0743228,14.583333 L27.5436693,34.6354158 L44,34.6354158 L43.9999989,29.5312493 L42.2597989,29.5312493 Z" id="path14"></path>
                </g>
            </g>
        </g>
    </g>
</svg>