<?xml version="1.0" encoding="UTF-8"?>
<svg width="44px" height="37px" viewBox="0 0 44 37" version="1.1" xmlns="http://www.w3.org/2000/svg" xmlns:xlink="http://www.w3.org/1999/xlink">
    <!-- Generator: Sketch 54.1 (76490) - https://sketchapp.com -->
    <title>iconmonstr-reddit-1</title>
    <desc>Created with Sketch.</desc>
    <g id="Page-1" stroke="none" stroke-width="1" fill="none" fill-rule="evenodd">
        <g id="iconmonstr-reddit-1" fill="#048657" fill-rule="nonzero">
            <path d="M44,18.09115 C44,15.392 41.8146667,13.1979 39.1288333,13.1979 C37.818,13.1979 36.63,13.727 35.7555,14.578 C32.4371667,12.37465 27.9473333,10.97235 22.9753333,10.7929 L25.6941667,2.15525 L33.0568333,3.8961 L33.0458333,4.0034 C33.0458333,6.21045 34.8333333,8.00495 37.0315,8.00495 C39.2278333,8.00495 41.0135,6.21045 41.0135,4.0034 C41.0135,1.79635 39.226,1.33226763e-15 37.0315,1.33226763e-15 C35.3448333,1.33226763e-15 33.9075,1.0619 33.3263333,2.55115 L25.3898333,0.6734 C25.0433333,0.5883 24.6913333,0.78995 24.5831667,1.13405 L21.5508333,10.767 C16.3478333,10.8299 11.6343333,12.2433 8.1675,14.51325 C7.2985,13.70295 6.14533333,13.19605 4.86933333,13.19605 C2.1835,13.19605 -2.66453526e-15,15.392 -2.66453526e-15,18.09115 C-2.66453526e-15,19.88565 0.977166667,21.4415 2.4145,22.2925 C2.31916667,22.8142 2.25683333,23.34145 2.25683333,23.87795 C2.25683333,31.1133 11.0715,37 21.9083333,37 C32.7451667,37 41.5616667,31.1133 41.5616667,23.87795 C41.5616667,23.37105 41.5085,22.87155 41.4241667,22.37945 C42.9495,21.5525 44,19.95225 44,18.09115 Z M12.4226667,21.45075 C12.4226667,19.84495 13.7243333,18.537 15.323,18.537 C16.9216667,18.537 18.2215,19.84495 18.2215,21.45075 C18.2215,23.05655 16.9216667,24.36265 15.323,24.36265 C13.7243333,24.36265 12.4226667,23.05655 12.4226667,21.45075 L12.4226667,21.45075 Z M29.0345,30.0884 C27.5733333,31.55545 25.2798333,32.26955 22.0238333,32.26955 L22,32.264 L21.9761667,32.26955 C18.7183333,32.26955 16.4248333,31.55545 14.9655,30.0884 C14.6996667,29.822 14.6996667,29.38725 14.9655,29.12085 C15.2313333,28.8526 15.664,28.8526 15.9298333,29.12085 C17.1215,30.3178 19.0996667,30.8987 21.9761667,30.8987 L22,30.90425 L22.0238333,30.8987 C24.9003333,30.8987 26.8785,30.31595 28.0701667,29.119 C28.336,28.85075 28.7686667,28.8526 29.0345,29.119 C29.3003333,29.38725 29.3003333,29.82015 29.0345,30.0884 Z M28.688,24.36265 C27.0893333,24.36265 25.7895,23.05655 25.7895,21.45075 C25.7895,19.84495 27.0893333,18.537 28.688,18.537 C30.2866667,18.537 31.5865,19.84495 31.5865,21.45075 C31.5865,23.05655 30.2866667,24.36265 28.688,24.36265 Z" id="Shape"></path>
        </g>
    </g>
</svg>