<?xml version="1.0" encoding="UTF-8"?>
<svg width="120px" height="173px" viewBox="0 0 120 173" version="1.1" xmlns="http://www.w3.org/2000/svg" xmlns:xlink="http://www.w3.org/1999/xlink">
    <!-- Generator: Sketch 54.1 (76490) - https://sketchapp.com -->
    <title>path7</title>
    <desc>Created with Sketch.</desc>
    <g id="Page-1" stroke="none" stroke-width="1" fill="none" fill-rule="evenodd">
        <path d="M59.879,0.707 C36.316,0.707 17.212,19.81 17.212,43.374 L17.212,59.327 C8.943,60.806 0.598,62.849 0.598,65.46 L0.598,149.046 C0.598,149.046 0.598,151.39 3.151,152.405 C12.578,156.156 49.589,169.274 58.083,172.278 C59.202,172.674 59.438,172.663 59.826,172.663 C60.234,172.663 60.445,172.677 61.555,172.284 C70.033,169.287 107.172,156.136 116.54,152.427 C118.973,151.464 119.043,149.08 119.043,149.08 L119.043,65.464 C119.043,62.854 110.814,60.806 102.544,59.326 L102.544,43.373 C102.545,19.81 83.442,0.707 59.879,0.707 Z M59.879,21.098 C73.739,21.098 82.171,29.514 82.171,43.374 L82.171,57.272 C66.522,56.132 53.224,56.132 37.573,57.272 L37.573,43.374 C37.573,29.513 46.017,21.098 59.879,21.098 Z M59.824,77.79 C79.213,77.821 95.512,79.265 95.512,82.025 C95.512,82.025 95.512,133.346 95.512,134.105 C95.512,134.865 95.392,134.993 94.671,135.266 C93.951,135.54 61.522,147.259 61.522,147.259 C61.522,147.259 60.191,147.701 59.825,147.701 C59.41,147.701 58.078,147.241 58.078,147.241 C58.078,147.241 25.663,135.533 24.935,135.258 C24.206,134.984 24.112,134.842 24.112,134.076 C24.112,133.232 24.112,82.023 24.112,82.023 C24.112,79.188 40.436,77.759 59.824,77.79 Z" id="path7" fill="#198657" fill-rule="nonzero"></path>
    </g>
</svg>