<?xml version="1.0" encoding="UTF-8"?>
<svg width="44px" height="36px" viewBox="0 0 44 36" version="1.1" xmlns="http://www.w3.org/2000/svg" xmlns:xlink="http://www.w3.org/1999/xlink">
    <!-- Generator: Sketch 54.1 (76490) - https://sketchapp.com -->
    <title>twitter-logo-silhouette (1)</title>
    <desc>Created with Sketch.</desc>
    <g id="Page-1" stroke="none" stroke-width="1" fill="none" fill-rule="evenodd">
        <g id="twitter-logo-silhouette-(1)" fill="#048657" fill-rule="nonzero">
            <path d="M44,4.28371084 C42.3805556,5.00522892 40.642915,5.49455422 38.8172026,5.71301205 C40.6813791,4.59057831 42.1083595,2.81024096 42.7846797,0.695349398 C41.0360392,1.73479518 39.1058627,2.48956627 37.0492222,2.89872289 C35.4023137,1.13219277 33.0597451,0.0318795181 30.4614444,0.0318795181 C25.4766471,0.0318795181 21.434902,4.09575904 21.434902,9.10510843 C21.434902,9.81556627 21.514634,10.5094699 21.668634,11.173012 C14.1680719,10.7942169 7.51709804,7.18098795 3.06569281,1.69055422 C2.28756863,3.02862651 1.8449085,4.58775904 1.8449085,6.25207229 C1.8449085,9.40091566 3.43962092,12.1792771 5.85918954,13.8047711 C4.37994118,13.7550361 2.98869281,13.3458795 1.77071242,12.6657831 L1.77071242,12.7791325 C1.77071242,17.174747 4.88313725,20.8432771 9.01007843,21.6782169 C8.25395425,21.8827952 7.45663399,21.9961446 6.63177778,21.9961446 C6.04892157,21.9961446 5.48526144,21.9380964 4.93260131,21.827494 C6.08184967,25.4352289 9.41427451,28.058747 13.3625556,28.1306747 C10.2748627,30.563494 6.3815817,32.0093494 2.1529085,32.0093494 C1.42432026,32.0093494 0.706660131,31.9651084 7.18954248e-05,31.8849398 C3.99508497,34.4642892 8.73795425,35.9681928 13.8354837,35.9681928 C30.4395882,35.9681928 39.5156667,22.1399277 39.5156667,10.1473735 L39.4853987,8.97245783 C41.2587712,7.7006747 42.7929477,6.10279518 44,4.28371084 Z" id="Path"></path>
        </g>
    </g>
</svg>