<?xml version="1.0" encoding="UTF-8"?>
<svg width="45px" height="32px" viewBox="0 0 45 32" version="1.1" xmlns="http://www.w3.org/2000/svg" xmlns:xlink="http://www.w3.org/1999/xlink">
    <!-- Generator: Sketch 54.1 (76490) - https://sketchapp.com -->
    <title>path4156</title>
    <desc>Created with Sketch.</desc>
    <g id="Page-1" stroke="none" stroke-width="1" fill="none" fill-rule="evenodd">
        <g id="youtube" fill="#048657" fill-rule="nonzero">
            <g id="g4167" transform="translate(0.283482, 0.732386)">
                <path d="M21.9863648,3.11212942e-15 C21.9863648,3.11212942e-15 8.23456253,1.29208017e-05 4.78304332,0.902933435 C2.93498084,1.42278809 1.41324486,2.95482244 0.896873768,4.84273487 C2.04475317e-05,8.31757644 0,15.5136877 0,15.5136877 C0,15.5136877 2.04475317e-05,22.7371167 0.896873768,26.157266 C1.41324486,28.0451528 2.9078028,29.5498262 4.78304332,30.0696935 C8.26174056,30.999965 21.9863648,31 21.9863648,31 C21.9863648,31 35.76543,30.9999891 39.2168777,30.0970681 C41.0921317,29.5772117 42.5866592,28.0998932 43.0758555,26.1846406 C43.9998947,22.7371254 43.9999208,15.5410623 43.9999208,15.5410623 C43.9999208,15.5410623 44.0270768,8.31757644 43.0758555,4.84273487 C42.5866592,2.95482244 41.0921317,1.45018479 39.2168777,0.957682594 C35.76543,4.37993278e-05 21.9863648,0 21.9863648,3.11212942e-15 Z M17.6107606,8.86508555 L29.0525924,15.5136877 L17.6107606,22.1349153 L17.6107606,8.86508555 L17.6107606,8.86508555 Z" id="path4156"></path>
            </g>
        </g>
    </g>
</svg>